# File created by Blade
# Date/Time:  Wed Sep 24 19:10:19 2014
# Frame Rate: 120.000 fps
#------------------------------------------------------
:FULLY-SPECIFIED
:DEGREES
841
root -6.506747 33.711524 -3.228302 -6.532603 -32.675577 19.638928
Spine -3.830367 11.524636 -15.496786
Head 5.107063 -6.551716 2.583571
LeftShoulder -9.811891 18.282833 14.764470
LeftArm 8.317322 -32.338062 -63.488336
LeftForeArm 8.067035 -0.000000 66.506846
LeftHand -37.767402 -0.000000 53.196425
LeftHandThumb1 -26.253704 0.000000 33.147579
RightShoulder -17.136314 10.487669 -20.515212
RightArm -15.725401 -27.526540 92.369655
RightForeArm -21.284184 -0.000000 26.339690
RightHand -5.024176 -0.000000 9.329971
RightHandThumb1 -24.326973 -0.000000 -32.862282
LeftUpLeg -83.586682 -5.004914 10.130986
LeftLeg 92.970867 -0.000000 -0.000000
LeftFoot 43.053432 -4.023776 -12.605460
LeftToeBase 4.247120 -0.000000 -0.000000
RightUpLeg -12.310534 8.214484 -14.846510
RightLeg 19.943780 -0.000000 -0.000000
RightFoot -12.146675 8.743157 -9.265814
RightToeBase -5.274346 -0.000000 0.000000
842
root -6.514111 33.701695 -3.243706 -6.424675 -32.472631 19.460150
Spine -3.792718 11.336123 -15.331917
Head 5.099090 -6.508892 2.571136
LeftShoulder -9.797289 18.252038 14.758115
LeftArm 8.489433 -32.128828 -63.615351
LeftForeArm 8.202374 0.000000 66.584378
LeftHand -37.769098 -0.000000 53.151868
LeftHandThumb1 -26.253704 0.000000 33.147579
RightShoulder -17.130463 10.512115 -20.527640
RightArm -15.661909 -27.477541 92.319555
RightForeArm -21.336420 0.000000 26.395550
RightHand -4.994316 0.000000 9.276771
RightHandThumb1 -24.326973 -0.000000 -32.862282
LeftUpLeg -83.798085 -4.595954 8.907851
LeftLeg 93.147565 -0.000000 -0.000000
LeftFoot 43.063677 -3.832612 -12.765024
LeftToeBase 4.424262 -0.000000 -0.000000
RightUpLeg -12.273050 8.120194 -14.691544
RightLeg 19.977338 -0.000000 -0.000000
RightFoot -12.186380 8.648433 -9.227304
RightToeBase -5.178383 -0.000000 0.000000
843
root -6.519537 33.692343 -3.258633 -6.333055 -32.234939 19.276101
Spine -3.714699 11.139672 -15.154387
Head 5.073415 -6.487101 2.564404
LeftShoulder -9.756260 18.196972 14.758037
LeftArm 8.676912 -31.938488 -63.757182
LeftForeArm 8.266522 -0.000000 66.647022
LeftHand -37.780808 -0.000000 53.167493
LeftHandThumb1 -26.253704 0.000000 33.147579
RightShoulder -17.135075 10.516034 -20.523893
RightArm -15.576538 -27.430837 92.233498
RightForeArm -21.361472 -0.000000 26.455327
RightHand -4.951134 -0.000000 9.311923
RightHandThumb1 -24.326973 -0.000000 -32.862282
LeftUpLeg -84.007264 -4.213083 7.647882
LeftLeg 93.354588 -0.000000 -0.000000
LeftFoot 43.006077 -3.612836 -12.950014
LeftToeBase 4.488980 -0.000000 -0.000000
RightUpLeg -12.205848 7.986477 -14.539049
RightLeg 20.007433 -0.000000 -0.000000
RightFoot -12.241745 8.537089 -9.202771
RightToeBase -5.031985 -0.000000 0.000000
844
root -6.525424 33.683239 -3.273685 -6.229745 -32.000087 19.103064
Spine -3.666625 10.951910 -15.005555
Head 5.045308 -6.481669 2.604995
LeftShoulder -9.698158 18.102833 14.781796
LeftArm 8.788602 -31.715572 -63.858329
LeftForeArm 8.376876 -0.000000 66.735710
LeftHand -37.747486 -0.000000 53.004285
LeftHandThumb1 -26.253704 0.000000 33.147579
RightShoulder -17.142729 10.526770 -20.512795
RightArm -15.523003 -27.369689 92.163590
RightForeArm -21.351852 -0.000000 26.514253
RightHand -4.961225 -0.000000 9.259558
RightHandThumb1 -24.326973 -0.000000 -32.862282
LeftUpLeg -84.252986 -3.844563 6.412307
LeftLeg 93.585102 -0.000000 -0.000000
LeftFoot 42.954782 -3.382891 -13.121291
LeftToeBase 4.469813 -0.000000 -0.000000
RightUpLeg -12.151155 7.828071 -14.388233
RightLeg 20.019305 -0.000000 -0.000000
RightFoot -12.264603 8.487797 -9.150141
RightToeBase -5.029322 -0.000000 0.000000
845
root -6.535642 33.672759 -3.287916 -6.112972 -31.791178 18.879069
Spine -3.615725 10.789299 -14.795597
Head 5.028396 -6.483666 2.619146
LeftShoulder -9.628340 17.995233 14.800729
LeftArm 8.876061 -31.484829 -63.961823
LeftForeArm 8.474337 -0.000000 66.847992
LeftHand -37.731123 0.000000 52.966959
LeftHandThumb1 -26.253704 0.000000 33.147579
RightShoulder -17.156772 10.528366 -20.513295
RightArm -15.461949 -27.313691 92.092198
RightForeArm -21.374646 0.000000 26.553486
RightHand -4.953154 -0.000000 9.205200
RightHandThumb1 -24.326973 -0.000000 -32.862282
LeftUpLeg -84.506689 -3.458033 5.216981
LeftLeg 93.882409 -0.000000 -0.000000
LeftFoot 42.755689 -3.155627 -13.263854
LeftToeBase 4.630743 -0.000000 -0.000000
RightUpLeg -12.080097 7.677685 -14.182465
RightLeg 20.021287 -0.000000 -0.000000
RightFoot -12.300950 8.412045 -9.133579
RightToeBase -4.937299 -0.000000 0.000000
846
root -6.542297 33.662673 -3.303883 -5.974926 -31.583920 18.667195
Spine -3.589983 10.613563 -14.595789
Head 4.995280 -6.488098 2.628059
LeftShoulder -9.591771 17.922876 14.802739
LeftArm 9.031273 -31.218738 -64.078219
LeftForeArm 8.589991 -0.000000 66.913355
LeftHand -37.723317 -0.000000 53.151326
LeftHandThumb1 -26.253704 0.000000 33.147579
RightShoulder -17.178717 10.560941 -20.527787
RightArm -15.423905 -27.257026 92.035396
RightForeArm -21.402087 -0.000000 26.577919
RightHand -4.980859 0.000000 9.229871
RightHandThumb1 -24.326973 -0.000000 -32.862282
LeftUpLeg -84.816850 -3.089654 3.974302
LeftLeg 94.203125 -0.000000 -0.000000
LeftFoot 42.641712 -2.590802 -13.388309
LeftToeBase 4.464832 -0.000000 -0.000000
RightUpLeg -12.051332 7.519800 -13.997151
RightLeg 20.038695 -0.000000 -0.000000
RightFoot -12.346463 8.344206 -9.064386
RightToeBase -4.744994 -0.000000 0.000000
847
root -6.550743 33.652191 -3.317093 -5.862188 -31.379873 18.457692
Spine -3.545410 10.442220 -14.408019
Head 4.968668 -6.491942 2.692570
LeftShoulder -9.556827 17.828889 14.794858
LeftArm 9.121935 -30.987059 -64.138529
LeftForeArm 8.636676 0.000000 67.071400
LeftHand -37.699024 -0.000000 52.898540
LeftHandThumb1 -26.253704 0.000000 33.147579
RightShoulder -17.187178 10.618481 -20.534372
RightArm -15.437238 -27.233658 91.998319
RightForeArm -21.407170 -0.000000 26.615347
RightHand -5.036570 -0.000000 9.184070
RightHandThumb1 -24.326973 -0.000000 -32.862282
LeftUpLeg -85.122058 -2.748314 2.823267
LeftLeg 94.580196 -0.000000 -0.000000
LeftFoot 42.393509 -2.211830 -13.683823
LeftToeBase 4.894786 -0.000000 -0.000000
RightUpLeg -11.985549 7.324322 -13.800919
RightLeg 20.032043 -0.000000 -0.000000
RightFoot -12.370475 8.304297 -9.055971
RightToeBase -4.723243 -0.000000 0.000000
848
root -6.561226 33.640679 -3.330299 -5.721345 -31.207805 18.212620
Spine -3.556298 10.320379 -14.192297
Head 5.023948 -6.530722 2.770781
LeftShoulder -9.478288 17.866840 14.884238
LeftArm 9.495599 -30.956416 -64.582418
LeftForeArm 9.008185 -0.000000 67.087639
LeftHand -37.779262 0.000000 52.758162
LeftHandThumb1 -26.253704 0.000000 33.147579
RightShoulder -17.180371 10.646832 -20.556668
RightArm -15.459015 -27.196088 91.981068
RightForeArm -21.416252 -0.000000 26.600720
RightHand -4.989095 0.000000 9.148873
RightHandThumb1 -24.326973 -0.000000 -32.862282
LeftUpLeg -85.453791 -2.386002 1.723334
LeftLeg 95.029689 -0.000000 -0.000000
LeftFoot 42.274780 -2.039511 -13.731981
LeftToeBase 4.625304 -0.000000 -0.000000
RightUpLeg -11.937281 7.168466 -13.574563
RightLeg 20.027623 -0.000000 -0.000000
RightFoot -12.426675 8.242393 -9.053557
RightToeBase -4.547478 -0.000000 0.000000
849
root -6.569927 33.629549 -3.340003 -5.636621 -31.027036 18.012210
Spine -3.513238 10.165413 -14.011486
Head 5.025864 -6.542309 2.848290
LeftShoulder -9.399219 17.779610 14.927059
LeftArm 9.549966 -30.710279 -64.672103
LeftForeArm 9.054091 -0.000000 67.202055
LeftHand -37.740735 0.000000 52.667285
LeftHandThumb1 -26.253704 0.000000 33.147579
RightShoulder -17.199627 10.650485 -20.565986
RightArm -15.399394 -27.179347 91.941881
RightForeArm -21.438132 0.000000 26.579548
RightHand -5.001122 -0.000000 9.149206
RightHandThumb1 -24.326973 -0.000000 -32.862282
LeftUpLeg -85.769059 -2.074098 0.627696
LeftLeg 95.547999 -0.000000 -0.000000
LeftFoot 42.095325 -1.749463 -13.882291
LeftToeBase 4.438744 -0.000000 -0.000000
RightUpLeg -11.852684 6.955460 -13.385951
RightLeg 20.015116 -0.000000 -0.000000
RightFoot -12.470589 8.287290 -9.068367
RightToeBase -4.558098 -0.000000 0.000000
850
root -6.579704 33.619218 -3.348358 -5.568754 -30.877494 17.825660
Spine -3.467268 10.032483 -13.846597
Head 5.022233 -6.542028 2.928135
LeftShoulder -9.329260 17.707381 14.976433
LeftArm 9.636825 -30.529018 -64.792345
LeftForeArm 9.129551 -0.000000 67.300265
LeftHand -37.786487 -0.000000 52.541235
LeftHandThumb1 -26.253704 0.000000 33.147579
RightShoulder -17.219653 10.679628 -20.576747
RightArm -15.359086 -27.189150 91.928712
RightForeArm -21.440934 -0.000000 26.528968
RightHand -4.945850 0.000000 9.141168
RightHandThumb1 -24.326973 -0.000000 -32.862282
LeftUpLeg -86.088563 -1.754044 -0.411245
LeftLeg 96.112915 -0.000000 -0.000000
LeftFoot 41.994261 -1.411716 -14.267863
LeftToeBase 4.513103 -0.000000 -0.000000
RightUpLeg -11.766229 6.806198 -13.212102
RightLeg 20.005255 -0.000000 -0.000000
RightFoot -12.534090 8.306115 -9.050341
RightToeBase -4.443565 -0.000000 0.000000
851
root -6.591392 33.607617 -3.355887 -5.484803 -30.753308 17.615452
Spine -3.452380 9.880469 -13.663422
Head 5.045188 -6.531435 3.020416
LeftShoulder -9.289575 17.669498 15.010439
LeftArm 9.816545 -30.419917 -64.984317
LeftForeArm 9.369110 -0.000000 67.319331
LeftHand -37.900519 -0.000000 52.559149
LeftHandThumb1 -26.253704 0.000000 33.147579
RightShoulder -17.187230 10.713985 -20.571290
RightArm -15.337454 -27.192142 91.908682
RightForeArm -21.445982 0.000000 26.489072
RightHand -4.961895 -0.000000 9.146165
RightHandThumb1 -24.326973 -0.000000 -32.862282
LeftUpLeg -86.437258 -1.438807 -1.401883
LeftLeg 96.764548 -0.000000 -0.000000
LeftFoot 41.931775 -1.216149 -14.368545
LeftToeBase 4.265580 -0.000000 -0.000000
RightUpLeg -11.689274 6.704883 -13.017873
RightLeg 19.994998 -0.000000 -0.000000
RightFoot -12.582313 8.278479 -8.995551
RightToeBase -4.352083 -0.000000 0.000000
